<?xml version="1.0" encoding="UTF-8" standalone="no"?>
<svg
   xmlns:dc="http://purl.org/dc/elements/1.1/"
   xmlns:cc="http://creativecommons.org/ns#"
   xmlns:rdf="http://www.w3.org/1999/02/22-rdf-syntax-ns#"
   xmlns:svg="http://www.w3.org/2000/svg"
   xmlns="http://www.w3.org/2000/svg"
   viewBox="0 0 245.7601 184.32001"
   id="svg25"
   height="184.32001"
   width="245.7601"
   version="1.1">
  <metadata
     id="metadata31">
    <rdf:RDF>
      <cc:Work
         rdf:about="">
        <dc:format>image/svg+xml</dc:format>
        <dc:type
           rdf:resource="http://purl.org/dc/dcmitype/StillImage" />
      </cc:Work>
    </rdf:RDF>
  </metadata>
  <defs
     id="defs29" />
  <g
     id="Layer1000">
    <g
       id="Layer1001">
      <path
         id="path2"
         style="fill:#909090;fill-rule:evenodd"
         d="m 64.9162,127.0955 c 1.9814,-0.9632 4.0679,-3.1903 5.356,-4.2796 10.9759,-9.2825 39.8179,-32.006 52.4369,-32.1409 12.4968,-0.1336 44.4636,24.5684 55.5847,34.5682 0.8041,0.723 1.4509,1.5528 2.5438,2.0265 1.4985,0.6494 1.8269,0.5476 2.275,-0.9039 1.0251,-3.3182 0.8291,-10.3436 0.0263,-12.9074 -1.3905,-4.4407 -4.1321,-7.11 -6.4657,-9.5963 -9.401,-10.0167 -40.9109,-42.7254 -53.6198,-43.0177 -10.9074,-0.2508 -38.2522,26.422 -45.8182,34.4309 -2.6582,2.8138 -4.9589,5.3239 -7.8455,8.1858 -2.0568,2.0391 -5.4047,5.6739 -6.6494,9.4002 -0.9393,2.8119 -1.0885,9.6308 -0.2068,13.2206 0.4098,1.6694 0.6546,1.8539 2.3827,1.0136 z m 2.2869,-6.5677 c 3.1512,-2.3076 10.0001,-8.0475 11.0657,-8.8826 4.39,-3.4408 8.4443,-6.4358 13.2295,-9.7603 5.998,-4.1671 21.6943,-14.7258 31.2047,-14.7682 9.3737,-0.0419 24.6773,9.952 31.3313,14.6349 7.9274,5.579 12.4575,9.0947 19.6367,14.8638 0.7437,0.5976 3.6877,3.2552 5.3729,4.3521 1.2245,0.7968 1.0113,0.4805 1.0696,-0.8141 0.3966,-8.8 -3.5846,-11.0927 -9.5508,-17.4955 -2.134,-2.2902 -4.8964,-4.8529 -7.1011,-7.1863 -6.3392,-6.7091 -32.8036,-32.1417 -40.5294,-30.8346 -0.3719,4.2269 0.8924,9.8778 -2.1355,12.1766 -1.7828,1.3537 -7.1439,3.293 -9.7307,4.5736 -11.6603,5.7725 -24.9452,13.9337 -34.9608,22.1688 -8.2703,6.7999 -10.5149,7.153 -10.4759,15.4658 0.0117,2.5435 -0.4505,2.9885 1.5738,1.506 z" />
      <path
         id="path4"
         style="fill:#909090;fill-rule:evenodd"
         d="m 120.9317,18.9776 c -10.0113,2.092 -27.3556,18.3069 -32.6974,23.5232 -4.854,4.74 -9.2753,8.9898 -14.021,13.8606 -3.2742,3.3606 -10.8115,10.0662 -11.9485,16.1671 -0.4281,2.2973 -0.5646,11.9877 1.0305,12.7181 1.4254,0.6527 3.6073,-1.6644 4.3645,-2.3356 5.8076,-5.1481 13.282,-10.8714 19.5827,-15.6178 6.8261,-5.142 26.9047,-20.0527 37.9007,-18.5367 12.6241,1.7405 40.7916,23.6463 51.2577,32.7252 1.0512,0.912 2.4879,2.2031 3.7772,3.2306 2.5853,2.0603 3.0715,-0.1218 3.2308,-2.477 0.9752,-14.4108 -1.5435,-15.4449 -13.7688,-27.7891 -8.5,-8.5826 -36.838,-37.949 -48.7084,-35.4686 z M 65.7768,79.2837 c 1.5299,-0.5338 11.2953,-8.8856 12.8867,-10.1152 4.4764,-3.4587 8.5923,-6.5787 13.0537,-9.5936 6.5323,-4.4143 21.4068,-14.6378 31.3448,-14.5415 9.3201,0.0904 25.0521,10.2558 31.1641,14.715 l 19.435,14.722 c 1.0567,0.8482 3.9782,3.5972 5.582,4.5037 0.8563,0.4841 0.77,0.3659 0.7903,-0.4309 0.2515,-9.7524 -2.9542,-10.9159 -9.5178,-18.0041 -7.2539,-7.8334 -38.3488,-39.1075 -47.5802,-38.063 -0.2977,3.9928 0.7599,9.801 -1.9354,12.024 -1.6977,1.4 -7.3629,3.4551 -9.6633,4.6019 -15.1025,7.5296 -30.2012,17.3799 -42.5791,28.5295 -3.2847,2.9588 -3.066,6.0679 -2.9808,11.6522 z" />
    </g>
    <g
       id="Layer1002">
      <path
         id="path7"
         style="fill:#909090;fill-rule:evenodd"
         d="m 150.5176,162.5976 c 0,0 -1.8644,0.0475 -3.2748,0 -3.5928,0 -7.4691,-2.6728 -7.4691,-6.9874 0,-4.2789 3.7961,-6.836 7.4516,-6.8341 0.0435,-0.007 1.8264,-0.0804 3.2912,-0.002 3.6722,0 7.4721,2.5571 7.4721,6.836 0,4.3146 -3.8785,6.9874 -7.471,6.9874 z m 3.5011,-16.5191 c -5.1056,-0.112 -10.2974,-0.002 -10.3417,0 -6.2391,0 -11.3143,4.2635 -11.3143,9.5036 0,5.3184 5.0752,9.6474 11.3187,9.6474 0.0417,0 5.2317,0.1012 10.342,0 6.2509,0 11.3363,-4.329 11.3363,-9.6474 0,-5.189 -4.9809,-9.3634 -11.341,-9.5036 z" />
      <path
         id="path9"
         style="fill:#909090;fill-rule:evenodd"
         d="m 220.4219,164.9844 h 6.3609 v -9.1262 c 0,-5.3303 -4.8449,-9.5101 -11.0284,-9.5101 h -16.0937 c -0.2615,0 -0.8735,0.0648 -0.8735,0.6962 v 17.2323 c 0,0.462 0.3411,0.706 0.6757,0.706 h 6.7261 V 150.569 c 0,-0.635 0.4889,-0.9449 0.9668,-0.9449 h 7.4073 c 2.0509,0 5.0844,1.8149 5.0844,5.7666 v 8.8658 c 0,0.008 0.0194,0.7279 0.7744,0.7279 z" />
      <path
         id="path11"
         style="fill:#909090;fill-rule:evenodd"
         d="m 86.154,150.0468 h 9.9296 v -2.9679 c 0,-0.4162 -0.3057,-0.7308 -0.7145,-0.7308 H 67.7007 c -0.4509,0 -0.7189,0.3665 -0.7189,0.7197 v 2.9772 h 6.6124 c 2.4835,0 4.1491,2.0982 4.1491,4.0566 v 10.1742 c 0,0.3342 0.3002,0.7086 0.7301,0.7086 l 6.7094,0.001 v -13.9876 c 0,-0.5247 0.437,-0.9511 0.9712,-0.9511 z" />
      <path
         id="path13"
         style="fill:#909090;fill-rule:evenodd"
         d="m 55.5677,164.2748 c 0,0.4191 0.3828,0.7107 0.7294,0.7107 h 6.7046 v -17.9314 c 0,-0.3752 -0.3288,-0.6933 -0.7027,-0.7096 h -6.0344 c -0.3801,0.0163 -0.6969,0.3344 -0.6969,0.7078 z" />
      <path
         id="path15"
         style="fill:#909090;fill-rule:evenodd"
         d="m 107.4673,155.0736 v -3.7214 c 0,-1.0174 0.7357,-1.7271 1.7856,-1.7271 h 9.874 c 1.4974,0 2.7628,1.239 2.7628,2.7048 0,1.513 -1.2542,2.7437 -2.795,2.7437 z m 14.441,9.9137 h 7.3803 c -0.1951,-4.8282 -5.481,-6.8208 -5.481,-6.8208 h 0.005 c 3.319,-0.7496 5.4625,-3.1009 5.4625,-5.8185 0,-2.8868 -2.8671,-6.0017 -7.4996,-6.0017 h -17.8507 c -2.1649,0 -3.8608,1.6736 -3.8608,3.8061 v 14.1224 c 0,0.4072 0.2966,0.7114 0.7079,0.7114 h 6.7012 v -6.611 h 6.3229 c 5.6281,0 7.9405,4.0057 8.1126,6.6121 z" />
      <path
         id="path17"
         style="fill:#909090;fill-rule:evenodd"
         d="m 44.2906,152.6023 h 7.2224 c -1.5631,-3.8973 -6.0939,-6.6568 -10.8799,-6.665 -2.6192,-0.005 -7.2878,-0.1521 -10.3344,-8e-4 -3.5603,0.1748 -5.8025,0.9766 -7.995,2.8576 -2.1416,1.8423 -3.3237,4.271 -3.3263,6.8507 0,5.3285 4.8108,9.5119 11.1911,9.7306 2.118,0.0736 3.3198,0.1136 4.6479,0.1157 h 0.1289 c 1.3802,-5e-4 2.9305,-0.0411 5.7971,-0.1268 5.3136,-0.1575 9.1207,-2.5271 10.7669,-6.663 h -7.2215 c -0.2725,0 -0.4816,0.1204 -0.621,0.3579 -1.3061,2.2185 -3.7647,3.5477 -6.4552,3.5895 -0.9364,0.0163 -2.2,0.0191 -3.3533,0.008 -3.7537,-0.0357 -7.4684,-2.6302 -7.4684,-7.0212 0,-4.3125 3.8145,-6.9408 7.4859,-6.9426 0.4205,-0.0166 1.8993,-0.0656 3.2554,0.002 2.6784,0 5.2497,1.3975 6.5456,3.5639 0.0471,0.0811 0.2329,0.3434 0.6138,0.3434 z" />
      <path
         id="path19"
         style="fill:#909090;fill-rule:evenodd"
         d="m 194.8063,161.6375 h -17.4909 c -0.5909,0 -1.0038,-0.3864 -1.0038,-0.9385 v -3.5517 h 15.1618 v -3.2716 h -15.1647 v -3.2411 c 0,-0.0155 -0.006,-0.9431 1.1259,-0.9431 h 17.368 v -2.6144 c 0,-0.7636 -0.8281,-0.7308 -0.852,-0.729 h -24.3292 c -0.0744,0 -0.7155,0.0184 -0.7394,0.6898 v 14.2194 c 0.0338,1.8433 1.4853,3.7271 3.8913,3.7271 h 21.3075 c 0.5442,0 0.72,-0.4986 0.7255,-0.6871 v -0.009 z" />
      <path
         id="path21"
         style="fill:#909090;fill-rule:evenodd"
         d="m 189.2419,139.5968 c -0.7901,-0.4328 -1.7413,-0.6469 -2.8559,-0.6469 -1.1144,0 -2.1037,0.2278 -2.8579,0.6469 -0.7572,0.4163 -1.3605,0.9767 -2.2512,0.9767 -0.8909,0 -1.4285,-0.5604 -2.231,-0.9767 -0.8067,-0.4199 -1.7436,-0.6469 -2.8588,-0.6469 -1.1156,0 -2.0638,0.2141 -2.8591,0.6469 -0.7645,0.4135 -1.1638,0.917 -1.1842,1.4991 v 0.0942 c 0.0204,0.5873 0.4197,1.089 1.1842,1.5061 0.7953,0.4289 1.7435,0.6412 2.8591,0.6412 1.1111,0 2.0821,-0.2069 2.7971,-0.5929 0.7132,-0.3846 1.4861,-1.0178 2.2927,-1.0178 0.8055,0 1.535,0.5676 2.2512,0.9695 0.7173,0.4026 1.7456,0.6412 2.8579,0.6412 1.1452,0 2.1109,-0.2123 2.8806,-0.6412 0.7758,-0.4282 1.1606,-0.9457 1.1606,-1.5533 0,-0.6022 -0.3941,-1.1215 -1.1853,-1.5461 z" />
    </g>
  </g>
</svg>
