<?xml version="1.0" encoding="UTF-8" ?>
<!DOCTYPE svg PUBLIC "-//W3C//DTD SVG 1.1//EN" "http://www.w3.org/Graphics/SVG/1.1/DTD/svg11.dtd">
<svg width="1025pt" height="206pt" viewBox="0 0 1025 206" version="1.1" xmlns="http://www.w3.org/2000/svg">
<g id="#006dcaff">
<path fill="#006dca" opacity="1.00" d=" M 723.46 0.00 L 748.34 0.00 C 748.56 7.72 748.40 15.45 748.45 23.17 C 740.08 23.22 731.71 23.19 723.34 23.19 C 723.39 15.46 723.22 7.73 723.46 0.00 Z" />
<path fill="#006dca" opacity="1.00" d=" M 827.48 0.00 L 852.37 0.00 C 852.61 7.73 852.44 15.46 852.48 23.19 C 844.11 23.20 835.74 23.20 827.37 23.19 C 827.42 15.46 827.25 7.73 827.48 0.00 Z" />
<path fill="#006dca" opacity="1.00" d=" M 999.52 0.00 L 1025.00 0.00 L 1025.00 23.17 C 1016.47 23.22 1007.94 23.19 999.42 23.19 C 999.46 15.46 999.31 7.73 999.52 0.00 Z" />
<path fill="#006dca" opacity="1.00" d=" M 618.31 0.38 C 626.68 0.40 635.05 0.32 643.42 0.42 C 643.50 15.42 643.20 30.42 643.57 45.41 C 647.26 39.59 652.77 34.76 659.40 32.62 C 669.01 29.58 680.14 30.66 688.47 36.56 C 694.21 40.24 698.33 45.89 701.35 51.91 C 703.69 57.39 705.53 63.16 705.80 69.16 C 706.50 72.35 706.63 75.74 705.76 78.92 C 705.64 82.05 705.11 85.14 704.25 88.15 C 703.78 89.41 703.32 90.66 702.87 91.92 C 698.46 103.51 688.37 113.00 676.13 115.69 C 663.00 118.86 647.20 114.46 640.39 102.09 C 640.21 106.29 640.18 110.49 640.33 114.69 C 633.03 115.59 625.64 114.90 618.31 115.11 C 618.30 76.86 618.31 38.62 618.31 0.38 M 654.89 53.96 C 649.75 56.47 645.65 61.10 643.52 66.35 C 643.37 72.40 643.20 78.51 643.61 84.55 C 646.52 90.34 652.50 94.67 659.00 95.29 C 666.65 96.06 674.50 91.74 677.81 84.78 C 680.82 79.28 680.97 72.75 679.31 66.80 C 677.91 63.39 676.41 59.88 673.59 57.38 C 668.90 52.46 661.01 50.97 654.89 53.96 Z" />
<path fill="#006dca" opacity="1.00" d=" M 769.68 0.47 C 778.22 0.33 786.77 0.29 795.31 0.49 C 795.26 28.99 795.30 57.49 795.29 86.00 C 795.24 88.82 795.58 92.20 798.29 93.77 C 802.37 96.26 807.35 94.57 811.47 93.04 C 811.58 93.79 811.78 95.29 811.88 96.04 C 813.01 101.27 813.80 106.58 814.71 111.86 C 805.64 115.48 795.60 117.49 785.88 115.87 C 779.75 114.90 774.30 110.84 771.72 105.19 C 770.75 102.56 770.45 99.77 769.82 97.06 C 769.53 64.87 769.80 32.66 769.68 0.47 Z" />
<path fill="#006dca" opacity="1.00" d=" M 205.24 6.31 C 213.60 6.32 221.95 6.30 230.31 6.32 C 230.30 14.89 230.30 23.45 230.31 32.01 C 233.97 32.02 237.64 32.02 241.31 32.02 C 241.31 38.69 241.31 45.35 241.31 52.02 C 237.64 52.02 233.97 52.02 230.30 52.03 C 230.34 63.67 230.25 75.31 230.34 86.95 C 230.05 90.23 232.79 93.16 235.99 93.49 C 240.31 94.08 244.45 92.31 248.39 90.78 C 250.37 97.24 251.16 104.07 253.62 110.36 C 244.42 114.55 234.23 117.38 224.04 116.40 C 218.42 115.80 212.55 113.58 209.11 108.87 C 206.63 105.45 205.20 101.24 205.26 97.00 C 205.23 82.05 205.22 67.09 205.27 52.13 C 201.51 51.98 197.76 52.01 194.00 52.02 C 194.00 45.35 194.00 38.68 194.00 32.01 C 197.76 32.04 201.51 32.06 205.27 31.88 C 205.21 23.36 205.25 14.83 205.24 6.31 Z" />
<path fill="#006dca" opacity="1.00" d=" M 4.95 41.49 C 19.33 32.17 37.36 28.70 54.13 32.41 C 61.45 34.04 68.61 37.69 73.21 43.76 C 77.64 49.50 79.49 56.86 79.55 64.03 C 79.64 71.72 79.50 79.41 79.59 87.10 C 79.56 88.88 80.16 90.56 80.65 92.25 C 82.03 92.82 83.43 93.38 84.82 93.92 C 84.90 101.00 84.84 108.07 84.86 115.15 C 78.40 116.31 71.36 117.32 65.15 114.62 C 60.44 112.46 58.63 107.12 58.28 102.30 C 52.57 109.56 44.18 114.76 35.00 116.16 C 26.52 117.49 17.25 115.95 10.40 110.54 C 3.38 105.08 -0.63 95.81 0.70 86.96 C 1.74 79.45 6.48 72.75 12.95 68.89 C 25.30 61.44 41.17 61.21 54.48 66.16 C 54.58 61.34 54.54 55.80 50.71 52.27 C 45.69 47.74 38.26 47.97 31.98 48.83 C 24.67 49.79 18.42 53.87 12.03 57.19 C 9.77 51.91 6.91 46.89 4.95 41.49 M 32.99 77.98 C 28.63 79.40 24.25 83.05 24.35 88.01 C 23.95 93.47 28.98 97.74 34.07 98.32 C 41.67 99.27 50.29 96.08 54.20 89.24 C 54.71 86.03 54.38 82.76 54.47 79.53 C 47.62 77.31 40.04 75.76 32.99 77.98 Z" />
<path fill="#006dca" opacity="1.00" d=" M 281.78 36.79 C 291.40 31.23 302.99 30.04 313.83 31.63 C 325.18 33.42 335.96 39.84 342.23 49.58 C 350.40 61.94 351.54 78.36 345.75 91.92 C 340.62 104.55 328.43 113.49 315.13 115.76 C 305.70 117.33 295.72 116.89 286.77 113.31 C 277.08 109.51 268.87 101.87 264.75 92.27 C 260.41 82.49 260.25 71.20 262.75 60.93 C 265.64 50.80 272.55 41.91 281.78 36.79 M 300.23 53.13 C 295.26 54.55 291.26 58.45 289.12 63.08 C 285.95 70.01 286.03 78.26 289.14 85.19 C 291.81 90.49 297.01 94.76 303.08 95.24 C 309.72 96.18 316.55 92.70 319.90 86.94 C 324.78 78.62 324.75 67.28 319.06 59.37 C 314.95 53.50 307.01 51.03 300.23 53.13 Z" />
<path fill="#006dca" opacity="1.00" d=" M 388.65 46.26 C 393.40 38.23 402.07 33.02 411.20 31.61 C 417.64 30.69 424.56 30.45 430.61 33.21 C 436.25 35.64 440.52 40.87 441.84 46.86 C 449.67 33.86 466.59 28.11 480.94 32.26 C 486.92 34.23 491.58 39.26 493.74 45.10 C 495.95 51.11 496.56 57.61 496.43 63.98 C 496.44 81.02 496.43 98.06 496.43 115.11 C 488.06 115.11 479.70 115.11 471.34 115.11 C 471.32 99.38 471.37 83.66 471.32 67.93 C 470.89 63.68 470.58 58.85 467.16 55.81 C 463.75 52.34 458.13 52.67 454.16 54.93 C 449.06 57.58 445.84 62.64 443.63 67.77 C 443.63 83.55 443.63 99.33 443.63 115.11 C 435.25 115.12 426.88 115.10 418.51 115.12 C 418.34 97.71 418.85 80.29 418.24 62.91 C 417.26 59.32 415.66 55.43 411.90 54.00 C 405.95 51.57 399.44 55.14 395.60 59.69 C 393.57 62.41 391.20 65.41 391.31 68.99 C 391.30 84.36 391.32 99.73 391.31 115.10 C 382.77 114.91 374.19 115.57 365.69 114.71 C 365.85 87.36 365.72 60.00 365.76 32.65 C 373.36 32.48 380.97 32.60 388.57 32.57 C 388.57 37.14 388.54 41.70 388.65 46.26 Z" />
<path fill="#006dca" opacity="1.00" d=" M 528.53 39.64 C 539.69 31.23 554.64 29.33 568.05 32.24 C 581.02 35.13 592.31 44.47 597.29 56.83 C 597.90 58.85 598.59 60.85 599.26 62.86 C 599.46 64.55 599.74 66.23 600.27 67.86 C 600.57 71.93 600.56 76.03 600.26 80.10 C 599.76 81.74 599.45 83.42 599.23 85.12 C 598.59 87.11 597.92 89.09 597.32 91.09 C 593.88 99.39 587.79 106.62 579.83 110.90 C 569.59 116.72 557.20 117.70 545.77 115.64 C 533.06 113.27 521.49 104.78 516.16 92.89 C 514.58 89.45 513.65 85.78 512.71 82.13 C 512.19 76.72 512.19 71.25 512.71 65.83 C 514.65 55.55 520.01 45.88 528.53 39.64 M 538.67 66.91 C 538.11 71.63 538.12 76.41 538.66 81.13 C 539.17 82.39 539.67 83.65 540.17 84.93 C 543.76 93.10 553.78 97.64 562.21 94.33 C 568.88 92.09 572.66 85.50 574.22 79.01 C 574.74 74.00 574.75 68.83 572.91 64.07 C 570.13 56.99 562.92 51.61 555.12 52.46 C 547.01 52.74 540.86 59.54 538.67 66.91 Z" />
<path fill="#006dca" opacity="1.00" d=" M 915.25 48.07 C 919.58 38.02 930.39 32.38 940.88 31.28 C 954.35 30.04 969.09 33.06 979.01 42.81 C 975.65 47.71 972.57 52.80 969.23 57.71 C 962.02 52.99 954.06 48.18 945.12 48.53 C 941.79 48.53 938.62 49.92 936.51 52.49 C 936.62 54.74 935.78 57.56 937.74 59.25 C 939.78 61.23 942.65 61.93 945.28 62.80 C 954.13 65.29 963.24 67.37 971.43 71.70 C 976.25 74.33 980.75 78.46 981.99 84.02 C 983.91 92.47 981.72 102.23 975.03 108.08 C 967.81 114.72 957.60 116.76 948.07 116.60 C 934.59 116.38 920.63 112.40 910.46 103.21 C 914.17 98.55 916.49 92.97 919.82 88.04 C 928.78 93.98 939.05 99.45 950.15 98.70 C 953.47 98.51 957.65 97.09 958.33 93.36 C 959.26 90.08 956.36 87.39 953.63 86.23 C 947.56 83.50 940.95 82.33 934.69 80.15 C 928.21 77.93 921.27 75.63 916.56 70.38 C 911.61 64.08 912.31 55.10 915.25 48.07 Z" />
<path fill="#006dca" opacity="1.00" d=" M 723.35 32.57 C 731.71 32.58 740.08 32.54 748.45 32.60 C 748.45 60.10 748.45 87.60 748.45 115.10 C 740.08 115.12 731.71 115.11 723.34 115.11 C 723.34 87.60 723.33 60.08 723.35 32.57 Z" />
<path fill="#006dca" opacity="1.00" d=" M 827.38 32.57 C 835.75 32.58 844.12 32.54 852.49 32.59 C 852.49 60.10 852.49 87.60 852.49 115.10 C 844.11 115.12 835.74 115.11 827.37 115.11 C 827.37 87.60 827.36 60.08 827.38 32.57 Z" />
<path fill="#006dca" opacity="1.00" d=" M 999.43 32.57 C 1007.95 32.59 1016.47 32.52 1025.00 32.62 L 1025.00 115.10 C 1016.47 115.12 1007.95 115.11 999.42 115.11 C 999.42 87.60 999.41 60.08 999.43 32.57 Z" />
<path fill="#006dca" opacity="1.00" d=" M 873.00 89.00 C 880.34 89.00 887.68 89.00 895.02 89.00 C 895.04 98.00 895.06 107.00 895.01 116.00 C 887.67 116.00 880.34 116.00 873.00 116.00 C 873.00 107.00 873.00 98.00 873.00 89.00 Z" />
<path fill="#006dca" opacity="1.00" d=" M 0.00 171.23 C 5.62 170.93 11.31 170.68 16.91 171.35 C 25.03 172.89 28.59 184.00 23.14 190.13 C 19.65 194.98 13.19 194.01 8.00 193.99 C 8.00 197.67 8.00 201.35 8.00 205.03 C 5.33 205.00 2.67 204.96 0.00 204.88 L 0.00 171.23 M 8.00 178.00 C 8.00 181.09 8.00 184.18 8.00 187.26 C 11.04 186.87 15.30 188.52 17.31 185.48 C 18.05 183.17 18.32 179.61 15.74 178.34 C 13.23 177.65 10.57 178.09 8.00 178.00 Z" />
<path fill="#006dca" opacity="1.00" d=" M 40.26 171.01 C 45.54 171.07 50.82 170.84 56.09 171.11 C 61.97 171.42 66.95 177.13 66.52 183.00 C 66.62 186.89 64.27 190.42 61.13 192.54 C 63.62 196.69 66.05 200.87 68.54 205.01 C 65.62 204.99 62.70 204.99 59.78 205.05 C 57.48 201.43 55.38 197.68 53.16 194.01 C 51.44 194.00 49.72 194.00 48.00 194.00 C 48.00 197.66 48.00 201.33 48.00 205.00 C 45.42 205.00 42.84 205.00 40.26 204.99 C 40.27 193.66 40.27 182.34 40.26 171.01 M 48.00 178.01 C 48.00 181.09 48.00 184.17 48.00 187.26 C 50.62 187.25 53.24 187.41 55.85 187.17 C 59.67 185.94 59.60 179.29 55.76 178.10 C 53.18 177.85 50.58 178.02 48.00 178.01 Z" />
<path fill="#006dca" opacity="1.00" d=" M 91.39 171.09 C 93.78 171.00 96.17 170.99 98.56 171.05 C 102.60 182.39 106.75 193.69 110.94 204.98 C 108.24 205.00 105.56 205.00 102.87 205.00 C 102.01 202.48 101.12 199.98 100.25 197.47 C 96.72 197.47 93.18 197.47 89.65 197.46 C 88.80 199.97 87.96 202.48 87.15 205.00 C 84.45 205.00 81.76 205.00 79.07 204.98 C 83.22 193.70 87.39 182.42 91.39 171.09 M 94.98 180.13 C 93.57 184.06 92.29 188.04 90.97 192.00 C 93.63 192.00 96.30 192.00 98.97 192.00 C 97.64 188.04 96.35 184.07 94.98 180.13 Z" />
<path fill="#006dca" opacity="1.00" d=" M 118.82 171.01 C 121.59 171.00 124.37 171.00 127.15 171.00 C 129.78 179.08 132.54 187.12 135.17 195.21 C 137.72 187.11 140.46 179.08 143.03 171.00 C 145.79 171.00 148.55 171.00 151.31 171.00 C 146.98 182.34 142.78 193.73 138.35 205.04 C 136.17 205.00 134.00 205.00 131.82 204.99 C 127.53 193.65 123.15 182.34 118.82 171.01 Z" />
<path fill="#006dca" opacity="1.00" d=" M 170.42 171.07 C 172.80 171.00 175.17 170.99 177.55 171.04 C 181.60 182.38 185.75 193.69 189.93 204.98 C 187.24 205.00 184.55 205.00 181.87 205.00 C 181.01 202.48 180.12 199.98 179.25 197.47 C 175.72 197.47 172.18 197.47 168.65 197.46 C 167.80 199.97 166.96 202.48 166.15 205.00 C 163.45 205.00 160.76 205.00 158.07 204.98 C 162.24 193.69 166.38 182.40 170.42 171.07 M 173.67 181.09 C 172.27 184.67 171.24 188.37 169.97 192.00 C 172.63 192.00 175.30 192.00 177.97 192.00 C 176.69 188.36 175.64 184.65 174.26 181.06 C 174.11 181.07 173.82 181.08 173.67 181.09 Z" />
<path fill="#006dca" opacity="1.00" d=" M 235.26 171.01 C 241.05 171.23 246.93 170.46 252.65 171.51 C 260.31 173.62 263.39 184.19 258.13 190.13 C 254.65 195.00 248.19 193.99 243.00 193.99 C 243.00 197.66 243.00 201.33 243.00 205.00 C 240.42 205.00 237.84 205.00 235.26 204.99 C 235.27 193.66 235.27 182.33 235.26 171.01 M 243.00 178.00 C 243.00 181.09 243.00 184.18 243.00 187.26 C 246.05 186.87 250.34 188.54 252.32 185.44 C 253.04 183.13 253.31 179.59 250.73 178.33 C 248.22 177.66 245.56 178.09 243.00 178.00 Z" />
<path fill="#006dca" opacity="1.00" d=" M 285.37 171.59 C 290.26 170.27 295.84 170.88 299.92 174.06 C 306.47 178.76 308.95 188.26 305.35 195.52 C 302.25 202.29 294.34 206.55 286.99 205.02 C 279.46 203.72 273.74 196.63 273.32 189.12 C 272.70 181.43 277.91 173.71 285.37 171.59 M 286.47 178.63 C 280.82 181.53 279.73 189.76 283.21 194.72 C 285.38 198.06 290.04 199.27 293.61 197.59 C 300.82 194.23 300.91 181.93 293.68 178.54 C 291.39 177.74 288.71 177.65 286.47 178.63 Z" />
<path fill="#006dca" opacity="1.00" d=" M 317.54 171.00 C 327.02 171.00 336.51 171.00 346.00 171.00 C 346.00 173.33 346.00 175.66 346.00 178.00 C 342.58 178.00 339.15 178.00 335.73 178.00 C 335.73 187.00 335.73 196.00 335.74 204.99 C 333.16 205.00 330.58 205.00 328.00 205.00 C 328.00 196.00 328.00 187.00 328.00 178.00 C 324.51 178.00 321.02 178.00 317.53 178.00 C 317.53 175.66 317.53 173.33 317.54 171.00 Z" />
<path fill="#006dca" opacity="1.00" d=" M 391.26 171.01 C 398.18 171.36 405.56 169.89 412.10 172.78 C 423.20 178.05 423.89 196.29 413.40 202.52 C 406.72 206.51 398.62 204.53 391.26 205.00 C 391.27 193.66 391.27 182.34 391.26 171.01 M 399.00 178.00 C 399.00 184.66 399.00 191.33 399.00 198.00 C 402.67 197.86 407.06 198.85 409.93 195.91 C 413.68 191.88 413.81 184.90 410.42 180.61 C 407.56 177.33 402.88 178.03 399.00 178.00 Z" />
<path fill="#006dca" opacity="1.00" d=" M 446.35 171.59 C 451.24 170.27 456.83 170.88 460.90 174.05 C 467.47 178.75 469.95 188.26 466.35 195.52 C 463.23 202.33 455.26 206.58 447.88 205.00 C 439.64 203.53 433.69 195.14 434.31 186.92 C 434.69 179.99 439.64 173.53 446.35 171.59 M 447.47 178.63 C 441.84 181.52 440.74 189.72 444.18 194.68 C 446.34 198.04 451.00 199.28 454.59 197.60 C 461.86 194.24 461.92 181.79 454.57 178.50 C 452.30 177.76 449.68 177.66 447.47 178.63 Z" />
<path fill="#006dca" opacity="1.00" d=" M 515.26 171.01 C 517.26 171.00 519.26 171.00 521.26 170.99 C 526.60 177.71 531.95 184.41 537.27 191.15 C 537.27 184.44 537.27 177.72 537.26 171.01 C 539.84 171.00 542.42 171.00 545.00 171.00 C 545.00 182.33 545.00 193.67 545.00 205.00 C 542.91 205.00 540.83 205.00 538.76 205.00 C 533.44 198.57 528.28 192.01 523.01 185.54 C 522.98 192.03 523.01 198.51 523.00 205.00 C 520.42 205.00 517.84 205.00 515.26 204.99 C 515.27 193.67 515.27 182.34 515.26 171.01 Z" />
<path fill="#006dca" opacity="1.00" d=" M 572.41 171.58 C 577.31 170.26 582.91 170.90 586.98 174.10 C 593.49 178.83 595.94 188.30 592.34 195.54 C 589.23 202.30 581.33 206.55 573.98 205.02 C 565.71 203.60 559.71 195.21 560.31 186.97 C 560.67 180.00 565.65 173.50 572.41 171.58 M 573.50 178.61 C 567.82 181.50 566.72 189.79 570.23 194.75 C 572.68 198.54 578.30 199.46 581.93 196.85 C 586.73 193.34 587.26 185.77 583.89 181.09 C 581.61 177.86 576.98 177.20 573.50 178.61 Z" />
<path fill="#006dca" opacity="1.00" d=" M 603.82 171.01 C 606.59 171.00 609.37 171.00 612.15 171.00 C 614.78 179.08 617.54 187.12 620.17 195.21 C 622.72 187.11 625.45 179.08 628.03 171.00 C 630.79 171.00 633.55 171.00 636.31 171.00 C 632.08 182.31 627.67 193.55 623.54 204.90 C 621.30 204.98 619.06 205.01 616.83 205.02 C 612.54 193.66 608.15 182.35 603.82 171.01 Z" />
<path fill="#006dca" opacity="1.00" d=" M 650.26 171.01 C 658.09 171.00 665.91 171.00 673.74 171.01 C 673.73 173.33 673.73 175.66 673.74 177.99 C 668.49 178.00 663.24 178.00 658.00 178.00 C 657.99 180.18 658.00 182.36 658.01 184.54 C 662.50 184.53 666.99 184.55 671.48 184.52 C 671.46 186.68 671.46 188.84 671.46 191.00 C 666.97 191.00 662.48 191.00 658.00 191.00 C 657.99 193.33 657.99 195.66 658.00 198.00 C 663.33 198.00 668.66 198.00 674.00 198.00 C 673.99 200.33 673.99 202.66 674.00 205.00 C 666.09 205.00 658.17 205.01 650.26 204.99 C 650.27 193.66 650.27 182.33 650.26 171.01 Z" />
<path fill="#006dca" opacity="1.00" d=" M 691.02 176.03 C 697.83 168.55 711.70 169.13 716.96 178.15 C 715.00 179.62 713.03 181.08 711.09 182.56 C 708.90 178.97 704.31 176.62 700.21 178.30 C 692.45 181.14 692.15 194.03 699.58 197.47 C 704.02 199.64 709.67 197.32 711.95 193.11 C 709.63 193.01 707.31 192.99 705.00 192.98 C 704.99 191.07 705.00 189.17 705.01 187.26 C 709.33 187.27 713.66 187.27 717.99 187.26 C 718.00 193.18 718.00 199.09 718.00 205.00 C 715.83 205.00 713.67 205.00 711.52 205.00 C 711.54 204.20 711.57 202.60 711.59 201.80 C 706.63 206.21 698.92 206.26 693.59 202.50 C 685.13 196.77 683.79 183.27 691.02 176.03 Z" />
<path fill="#006dca" opacity="1.00" d=" M 743.45 171.04 C 745.84 170.98 748.23 171.00 750.63 171.11 C 754.56 182.46 758.79 193.70 762.93 204.98 C 760.24 205.00 757.55 205.00 754.87 205.00 C 754.01 202.48 753.12 199.98 752.25 197.47 C 748.72 197.47 745.18 197.47 741.65 197.46 C 740.80 199.97 739.95 202.48 739.15 205.00 C 736.45 205.00 733.75 205.00 731.07 204.98 C 735.25 193.69 739.36 182.37 743.45 171.04 M 746.83 180.59 C 745.44 184.36 744.25 188.20 742.97 192.00 C 745.63 192.00 748.29 192.00 750.97 192.00 C 749.58 188.20 748.69 184.20 746.83 180.59 Z" />
<path fill="#006dca" opacity="1.00" d=" M 801.82 171.01 C 804.59 171.00 807.36 171.00 810.15 171.00 C 812.78 179.08 815.54 187.12 818.17 195.21 C 820.72 187.11 823.45 179.08 826.03 171.00 C 828.78 171.00 831.54 171.00 834.31 171.00 C 830.08 182.31 825.67 193.56 821.53 204.91 C 819.29 204.99 817.05 205.00 814.83 205.02 C 810.54 193.66 806.15 182.35 801.82 171.01 Z" />
<path fill="#006dca" opacity="1.00" d=" M 857.39 171.58 C 862.04 170.35 867.34 170.80 871.34 173.65 C 877.81 177.92 880.76 186.80 877.95 194.06 C 875.36 201.61 866.92 206.65 859.04 205.03 C 850.72 203.63 844.67 195.18 845.31 186.90 C 845.70 179.96 850.66 173.50 857.39 171.58 M 858.48 178.62 C 852.82 181.52 851.72 189.77 855.22 194.73 C 857.65 198.53 863.27 199.46 866.91 196.87 C 871.75 193.35 872.27 185.72 868.85 181.04 C 866.56 177.85 861.94 177.20 858.48 178.62 Z" />
<path fill="#006dca" opacity="1.00" d=" M 891.00 171.00 C 899.66 171.00 908.33 171.00 917.00 171.00 C 916.99 172.99 916.99 174.99 917.00 176.99 C 911.44 184.00 905.89 191.03 900.27 197.99 C 905.93 198.01 911.60 197.99 917.26 198.00 C 917.26 200.33 917.26 202.66 917.26 205.00 C 908.26 205.00 899.27 205.00 890.27 204.99 C 890.25 203.07 890.25 201.15 890.25 199.23 C 896.20 192.17 902.02 185.01 908.02 177.99 C 902.34 178.01 896.67 178.00 891.00 178.00 C 890.99 175.66 890.99 173.33 891.00 171.00 Z" />
<path fill="#006dca" opacity="1.00" d=" M 933.26 171.01 C 935.83 171.00 938.41 171.00 941.00 171.00 C 941.00 182.33 941.00 193.67 941.00 205.00 C 938.41 205.00 935.83 205.00 933.26 204.99 C 933.27 193.66 933.27 182.34 933.26 171.01 Z" />
<path fill="#006dca" opacity="1.00" d=" M 958.26 171.01 C 960.83 171.00 963.41 171.00 966.00 171.00 C 966.00 180.00 966.00 189.00 966.00 198.00 C 971.48 198.00 976.97 198.00 982.46 198.00 C 982.46 200.33 982.46 202.66 982.46 205.00 C 974.39 205.00 966.33 205.01 958.26 204.99 C 958.27 193.66 958.27 182.34 958.26 171.01 Z" />
<path fill="#006dca" opacity="1.00" d=" M 1005.49 171.01 C 1007.83 171.00 1010.17 171.01 1012.53 171.02 C 1016.65 182.33 1020.65 193.69 1025.00 204.92 L 1025.00 204.94 C 1022.28 204.98 1019.57 205.00 1016.87 205.01 C 1016.00 202.49 1015.12 199.98 1014.26 197.47 C 1010.71 197.46 1007.18 197.46 1003.64 197.46 C 1002.80 199.97 1001.96 202.48 1001.14 205.00 C 998.44 205.00 995.75 204.99 993.07 204.99 C 997.26 193.68 1001.34 182.34 1005.49 171.01 M 1008.90 180.40 C 1007.49 184.23 1006.27 188.13 1004.97 192.00 C 1007.63 192.00 1010.29 192.00 1012.97 192.00 C 1011.62 188.13 1010.52 184.17 1008.90 180.40 Z" />
</g>
<g id="#8ad500ff">
<path fill="#8ad500" opacity="1.00" d=" M 155.45 6.20 C 163.83 6.12 172.21 5.90 180.60 6.02 C 169.27 42.33 157.64 78.56 146.15 114.82 C 140.79 115.60 135.39 114.94 130.01 115.05 C 124.95 114.98 119.88 115.29 114.84 114.77 C 109.85 97.48 104.33 80.35 99.13 63.13 C 106.78 63.19 114.45 62.77 122.08 63.35 C 124.11 73.21 127.07 82.88 129.56 92.63 C 129.92 92.94 130.63 93.56 130.99 93.87 C 136.11 73.09 142.67 52.67 148.22 32.00 C 150.30 23.32 152.94 14.77 155.45 6.20 Z" />
</g>
</svg>
