<svg xmlns="http://www.w3.org/2000/svg" viewBox="0 0 53.53 99.49"><defs><style>.cls-1{fill:#2085dd;}</style></defs><title>location-pin</title><g id="Layer_2" data-name="Layer 2"><g id="Layer_1-2" data-name="Layer 1"><path class="cls-1" d="M4,.07a4,4,0,0,0-4,4H0V15.56a4,4,0,0,0,4,4H7.28l4,14.21L7.5,42.28A4,4,0,0,0,4.74,46V57.49a4,4,0,0,0,4,4H21.92l-.07,38h8.06v-38H44.76a4,4,0,0,0,4-4h0V46A4,4,0,0,0,46,42.21l-3.82-8.49,4-14.21H49.5a4,4,0,0,0,4-4h0V4a4,4,0,0,0-4-4h0ZM40.66,53.39H12.8V50h28ZM34,32.88a4.1,4.1,0,0,0,.21,2.76L37.05,42H16.4l2.83-6.36a4.1,4.1,0,0,0,.21-2.76L15.63,19.45h22.2ZM45.4,11.46H8.06V8.06H45.4Z"/></g></g></svg>