<svg xmlns="http://www.w3.org/2000/svg" viewBox="0 0 77.8 45"><defs><style>.cls-1{fill:#63aded;}</style></defs><title>car</title><g id="Layer_2" data-name="Layer 2"><g id="Layer_1-2" data-name="Layer 1"><path class="cls-1" d="M8.6,38.5a10.48,10.48,0,0,0,19.3.2H49.4A10.46,10.46,0,0,0,59,45a10.7,10.7,0,0,0,9.7-6.4,10.73,10.73,0,0,0,9.1-10.4h0V5.1H63.3l7.1-3.3L69.6,0l-11,5.1H47.4l7.1-3.3L53.7,0l-11,5.1H28.5l-9,12.1H10.8A10.76,10.76,0,0,0,8.6,38.5ZM75.7,14.9v2.3H22L29.5,7.1H75.7v7.8ZM50.5,34.6A8.5,8.5,0,1,1,59,43.1,8.62,8.62,0,0,1,50.5,34.6Zm-40.6,0a8.5,8.5,0,1,1,8.5,8.5A8.62,8.62,0,0,1,9.9,34.6ZM2.1,28a8.81,8.81,0,0,1,8.8-8.8H75.7v9h0a8.76,8.76,0,0,1-6.5,8.2,11,11,0,0,0,.2-1.8,10.5,10.5,0,0,0-21,0,13.61,13.61,0,0,0,.2,2.1H28.5a15,15,0,0,0,.2-2.2,10.4,10.4,0,1,0-20.8.1c0,.6.1,1.1.1,1.7A8.88,8.88,0,0,1,2.1,28Z"/><rect class="cls-1" x="32.3" y="22.1" width="7.6" height="2"/></g></g></svg>