<svg xmlns="http://www.w3.org/2000/svg" viewBox="0 0 8.48 7.7"><defs><style>.cls-1{fill:#63aded;}</style></defs><title>engine</title><g id="Layer_2" data-name="Layer 2"><g id="Layer_1-2" data-name="Layer 1"><path class="cls-1" d="M4.17,4.3a1.54,1.54,0,0,0-1.5,1.5,1.54,1.54,0,0,0,1.5,1.5,1.54,1.54,0,0,0,1.5-1.5A1.47,1.47,0,0,0,4.17,4.3Zm0,.2a1.16,1.16,0,0,1,1.2,1.2,1.16,1.16,0,0,1-1.2,1.2A1.16,1.16,0,0,1,3,5.7,1.29,1.29,0,0,1,4.17,4.5Z"/><path class="cls-1" d="M6,5.7V6.9l-.6.6H3.08l-.6-.6V5.8h-.3V7l.7.7h2.5l.7-.7V5.7H6Z"/><path class="cls-1" d="M4.17,5.3a.43.43,0,0,0-.4.4.43.43,0,0,0,.4.4.43.43,0,0,0,.4-.4A.37.37,0,0,0,4.17,5.3Zm0,.3a.1.1,0,1,1-.1.1A.1.1,0,0,1,4.17,5.6Z"/><path class="cls-1" d="M4.17.2a.86.86,0,0,0-.8.8.86.86,0,0,0,.8.8A.86.86,0,0,0,5,1,.74.74,0,0,0,4.17.2Zm0,.2a.47.47,0,0,1,.5.5.47.47,0,0,1-.5.5.47.47,0,0,1-.5-.5A.54.54,0,0,1,4.17.4Z"/><path class="cls-1" d="M2.78.7l-.2.1L4,3.3,2.08,4.5.68,2l-.2.1,1.4,2.6v1a.1.1,0,0,0,.1.1H3V5.5h-.8V4.6l2.1-1.3c.1,0,.1-.1,0-.2Z"/><path class="cls-1" d="M3.88,2.7,1.68,4.1l.1.2L4,2.9Z"/><path class="cls-1" d="M1.38,1.5l-.2.1,1.2,2.2.2-.1Z"/><path class="cls-1" d="M2.18,1.1,2,1.2l1.2,2.2.2-.1Z"/><path class="cls-1" d="M3.48.9,3,1.2l.1.2.5-.3Z"/><path class="cls-1" d="M3.78,1.4l-.5.3.1.2.5-.3Z"/><path class="cls-1" d="M2.58,0h0L.08,1.5c-.1,0-.1.1,0,.2h0l.3.5c0,.1.1.1.2,0L3.08.7c.1,0,.1-.1,0-.2h0L2.68.1Zm0,.3.2.3L.58,2l-.2-.3Z"/><path class="cls-1" d="M5.58.7,4.08,3.3v.2l2.1,1.3v.9h-.7V6h.9a.1.1,0,0,0,.1-.1h0v-1L8,2.1,7.78,2,6.38,4.5,4.48,3.3,5.88.8Z"/><path class="cls-1" d="M4.58,2.7l-.1.2,2.2,1.4.1-.2Z"/><path class="cls-1" d="M7,1.5,5.78,3.7l.2.1,1.2-2.2Z"/><path class="cls-1" d="M6.28,1.1,5.08,3.3l.2.1,1.2-2.2Z"/><path class="cls-1" d="M5,.9l-.1.2.5.3.1-.2Z"/><path class="cls-1" d="M4.58,1.4l-.1.2.5.3.1-.2Z"/><path class="cls-1" d="M3.28,5.7a.1.1,0,0,1,.1-.1h0a.1.1,0,0,1,.1.1h0a.1.1,0,0,1-.1.1h0c0,.1-.1,0-.1-.1Z"/><path class="cls-1" d="M4.88,5.7A.1.1,0,0,1,5,5.6H5a.1.1,0,0,1,.1.1h0a.1.1,0,0,1-.1.1H5c0,.1-.1,0-.1-.1Z"/><path class="cls-1" d="M4.17,4.8a.1.1,0,0,1,.1.1h0a.1.1,0,0,1-.1.1h0a.1.1,0,0,1-.1-.1h0l.1-.1Z"/><path class="cls-1" d="M4.17,6.4a.1.1,0,0,1,.1.1h0a.1.1,0,0,1-.1.1h0a.1.1,0,0,1-.1-.1h0a.1.1,0,0,1,.1-.1Z"/><path class="cls-1" d="M5.88,0a.1.1,0,0,0-.1.1l-.3.5V.8h0L8,2.3h.2l.3-.5V1.6h0L5.88,0Zm0,.3,2.2,1.4L8,2,5.78.6C5.67.6,5.88.3,5.88.3Z"/></g></g></svg>