<svg xmlns="http://www.w3.org/2000/svg" viewBox="0 0 215.07 460.83"><defs><style>.cls-1{fill:#2085dd;}</style></defs><title>fb</title><g id="Layer_2" data-name="Layer 2"><g id="Layer_1-2" data-name="Layer 1"><g id="_000000ff" data-name="#000000ff"><path class="cls-1" d="M94.13,9c17.43-7.46,36.65-9,55.4-9q32.76,0,65.53,0,0,40.4,0,80.79H164.47c-11.37-.24-23,9.82-22.15,21.64.06,16.66,0,33.32,0,50h72.58c-2,26.06-4.95,52-8.91,77.88H142q0,115.26,0,230.52-47.75,0-95.47,0,0-115.26,0-230.52-23.25,0-46.5,0Q0,191.5,0,152.7H46.5c0-22.1,0-44.2,0-66.3C46.71,69.16,50.41,51.5,60,36.93A73.56,73.56,0,0,1,94.13,9Z"/></g></g></g></svg>