<svg xmlns="http://www.w3.org/2000/svg" viewBox="0 0 55.9 63.91"><defs><style>.cls-1,.cls-2,.cls-3{fill:none;stroke:#63aded;stroke-width:2px;}.cls-1,.cls-2{stroke-miterlimit:10;}.cls-2,.cls-3{stroke-linecap:round;}.cls-3{stroke-linejoin:round;}</style></defs><title>keys</title><g id="Layer_2" data-name="Layer 2"><g id="Layer_1-2" data-name="Layer 1"><circle class="cls-1" cx="32.5" cy="14" r="3"/><polyline class="cls-2" points="17 32.9 17 37.5 14 40.5 17 43.5 14 46.5 17 49.5 14 52.5 17 55.5 17 58.5 13 62.5 9 58.5 9 32.9"/><path class="cls-1" d="M32.1,10.5A9.5,9.5,0,0,0,22.6,1,9.65,9.65,0,0,0,13,10.5"/><path class="cls-1" d="M14.2,14.1H11.9a1.79,1.79,0,0,1-1.8-1.8h0a1.79,1.79,0,0,1,1.8-1.8h2.3A1.79,1.79,0,0,1,16,12.3h0A1.86,1.86,0,0,1,14.2,14.1Z"/><path class="cls-3" d="M9.3,7h7.3C25,7,25,18.6,25,23.7c0,7-5.2,9.4-10.4,9.4H11.5C6.2,33,1,30.6,1,23.7,1,18.6,1,7,9.3,7h7.3"/><path class="cls-3" d="M25,24.4,39.5,38.9a4,4,0,0,0,5.7,0l8.5-8.5a4,4,0,0,0,0-5.7L36,7.1a4,4,0,0,0-5.7,0L24,13.4"/></g></g></svg>