<svg xmlns="http://www.w3.org/2000/svg" viewBox="0 0 89.85 89.95"><defs><style>.cls-1{fill:#fff;}</style></defs><title>kvaliteta</title><g id="Layer_2" data-name="Layer 2"><g id="Layer_1-2" data-name="Layer 1"><path class="cls-1" d="M44.71,0a3.18,3.18,0,0,0-.9.3l-4.9,3.3-5.8-1.2a2.13,2.13,0,0,0-2.1.8l-3.2,5L22,9.34a2.17,2.17,0,0,0-1.6,1.6l-1.1,5.8-5,3.2a2,2,0,0,0-.8,2.1l1.2,5.8-3.3,4.9a1.8,1.8,0,0,0,0,2.2l3.3,4.9-1.2,5.8a2.13,2.13,0,0,0,.8,2.1l2.8,1.8L.31,75.74a2.07,2.07,0,0,0,.6,2.8,2,2,0,0,0,1.5.3l13.2-2.6,3.5,12.2a1.94,1.94,0,0,0,2.4,1.4,2.15,2.15,0,0,0,1.2-.9l14.6-24.4,1.6-.3,4.9,3.3a2.1,2.1,0,0,0,1.1.4,1.5,1.5,0,0,0,1.1-.4l4.9-3.3,1.6.3,14.6,24.4a1.9,1.9,0,0,0,2.7.7,1.78,1.78,0,0,0,.9-1.2l3.5-12.2,13.2,2.6a2.1,2.1,0,0,0,2.4-1.6,2.06,2.06,0,0,0-.3-1.5l-16.8-26.2,2.8-1.8a2,2,0,0,0,.8-2.1l-1.2-5.8,3.3-4.9a1.8,1.8,0,0,0,0-2.2l-3.3-4.9,1.2-5.8a2.13,2.13,0,0,0-.8-2.1l-5-3.2-1.1-5.8a2.17,2.17,0,0,0-1.6-1.6L62,8.24l-3.2-5a2,2,0,0,0-2.1-.8l-5.8,1.2L46,.34A1.52,1.52,0,0,0,44.71,0Zm.2,4.4,4.5,3.1a2.22,2.22,0,0,0,1.6.3l5.2-1.1,3,4.5a2,2,0,0,0,1.3.9l5.3,1,1,5.3a2,2,0,0,0,.9,1.3l4.5,3L71.11,28a2.32,2.32,0,0,0,.3,1.6l3.1,4.5-3.1,4.5a2.22,2.22,0,0,0-.3,1.6l1.1,5.2-4.5,3a2,2,0,0,0-.9,1.3l-1,5.3-5.3,1a2,2,0,0,0-1.3.9l-3,4.5L51,60.34a2.32,2.32,0,0,0-1.6.3l-4.5,3.1-4.5-3.1a2.22,2.22,0,0,0-1.6-.3l-5.3,1.1-3-4.5a2,2,0,0,0-1.3-.9l-5.3-1-1-5.3a2,2,0,0,0-.9-1.3l-4.5-3,1.1-5.2a2.32,2.32,0,0,0-.3-1.6l-3.1-4.5,3.1-4.5a2.22,2.22,0,0,0,.3-1.6l-1.1-5.3,4.5-3a2,2,0,0,0,.9-1.3l1-5.3,5.3-1a2,2,0,0,0,1.3-.9l3-4.5,5.3,1.1a2.32,2.32,0,0,0,1.6-.3C40.41,7.44,44.91,4.44,44.91,4.44Zm0,5.6a24,24,0,1,0,24,24A24.07,24.07,0,0,0,44.91,10Zm0,4a20,20,0,1,1-20,20A19.93,19.93,0,0,1,44.91,14Zm10.4,9.9-13,13.9-6.8-6.1-4,4.5,9,8,2.2,1.9,2-2.1,15-16-4.4-4.1Zm14.9,29.2L83.71,74l-10.4-2.1a2,2,0,0,0-2.3,1.4l-2.7,9.6-10.5-17.5a2.1,2.1,0,0,0,1.1-.8l3.2-5,5.8-1.1a2.17,2.17,0,0,0,1.6-1.6l.7-3.8Zm-50.6,0,.7,3.8a2.17,2.17,0,0,0,1.6,1.6l5.8,1.1,3.2,5a1.78,1.78,0,0,0,1.1.8l-10.5,17.5-2.7-9.6a2,2,0,0,0-2.3-1.4L6.11,74l13.5-20.9Z"/></g></g></svg>