<svg xmlns="http://www.w3.org/2000/svg" viewBox="0 0 88.84 69.2"><defs><style>.cls-1{fill:#7f7f7f;}</style></defs><title>menjalnik</title><g id="Layer_2" data-name="Layer 2"><g id="Layer_1-2" data-name="Layer 1"><path class="cls-1" d="M7.5,15.1A7.55,7.55,0,0,1,7.5,0,7.55,7.55,0,0,1,15,7.5h0A7.51,7.51,0,0,1,7.5,15.1ZM7.5,4A3.54,3.54,0,0,0,4,7.5,3.54,3.54,0,0,0,7.5,11,3.48,3.48,0,0,0,11,7.5,3.42,3.42,0,0,0,7.5,4Z"/><path class="cls-1" d="M44.4,15.1a7.49,7.49,0,0,1-7.5-7.5A7.64,7.64,0,0,1,44.4,0a7.55,7.55,0,0,1,7.5,7.5h0A7.51,7.51,0,0,1,44.4,15.1ZM44.4,4a3.54,3.54,0,0,0-3.5,3.5,3.5,3.5,0,0,0,7,0h0A3.48,3.48,0,0,0,44.4,4Z"/><path class="cls-1" d="M7.5,69.2A7.5,7.5,0,1,1,15,61.7h0A7.49,7.49,0,0,1,7.5,69.2Zm0-11.1a3.5,3.5,0,0,0,0,7A3.54,3.54,0,0,0,11,61.6h0A3.48,3.48,0,0,0,7.5,58.1Z"/><path class="cls-1" d="M44.4,69.2a7.5,7.5,0,1,1,7.4-8.9h0a7.62,7.62,0,0,1-5.9,8.9A7.52,7.52,0,0,0,44.4,69.2Zm0-11.1a1.7,1.7,0,0,0-.7.1,3.32,3.32,0,1,0,.7-.1Z"/><path class="cls-1" d="M81.3,15.1a7.5,7.5,0,1,1,7.4-8.9h0a7.62,7.62,0,0,1-5.9,8.9A7.52,7.52,0,0,0,81.3,15.1ZM81.3,4a1.7,1.7,0,0,0-.7.1,3.57,3.57,0,1,0,4.2,2.8h0A3.62,3.62,0,0,0,81.3,4Z"/><path class="cls-1" d="M81.3,17.8a2,2,0,0,0-2,2V32.6H46.4V19.8a2,2,0,0,0-4,0V32.6H9.5V19.8a2,2,0,0,0-4,0V49.3a2,2,0,0,0,4,0V36.6H42.4V49.4a2,2,0,1,0,4,0V36.6H81.3a2,2,0,0,0,2-2V19.8A2,2,0,0,0,81.3,17.8Z"/></g></g></svg>