<svg xmlns="http://www.w3.org/2000/svg" viewBox="0 0 70.05 43.89"><defs><style>.cls-1{fill:#9b9b9b;}</style></defs><title>offer-index</title><g id="Layer_2" data-name="Layer 2"><g id="Layer_1-2" data-name="Layer 1"><path class="cls-1" d="M11.77,0a.68.68,0,0,0-.6.4l-11,15a1.09,1.09,0,0,0,.2,1.4l9.2,7.4-1.3,1.3a4.41,4.41,0,0,0,0,6.2,4.54,4.54,0,0,0,3.6,1.2,4.25,4.25,0,0,0,1.1-.2,4.23,4.23,0,0,0,1.2,3,4,4,0,0,0,4.4.9,4.49,4.49,0,0,0,1.3,3.1,4.39,4.39,0,0,0,5.2.7,4.77,4.77,0,0,0,1.2,2.2,4.41,4.41,0,0,0,6.2,0l2.5-2.5,2.5,2.5a4.41,4.41,0,0,0,6.2,0,4.77,4.77,0,0,0,1.2-2.2,4.41,4.41,0,0,0,5.2-.8,4.26,4.26,0,0,0,1.3-3,4.26,4.26,0,0,0,4.4-1,4,4,0,0,0,1.2-2.9,5,5,0,0,0,1.2.2,4.91,4.91,0,0,0,3.5-1.4,4.58,4.58,0,0,0,.1-6.1L60.57,24l9.1-7.2a1.06,1.06,0,0,0,.2-1.4l-11-15a1,1,0,0,0-1.4-.2A12.12,12.12,0,0,1,51,2a10.69,10.69,0,0,1-4.4-.9A11.52,11.52,0,0,0,42,0a15.83,15.83,0,0,0-7.1,1.8A17.27,17.27,0,0,0,28,0a12,12,0,0,0-4.6,1.1A11.06,11.06,0,0,1,19,2a11.59,11.59,0,0,1-6.4-1.8,1.08,1.08,0,0,0-.8-.2ZM28,2a16.08,16.08,0,0,1,5.3,1.4l-11.1,13a1.16,1.16,0,0,0-.2,1,5.43,5.43,0,0,0,2.2,2.6A6.74,6.74,0,0,0,28,21c2.9,0,5.5-1.7,7.9-3.6a74.43,74.43,0,0,0,5.6-5.4h7.1l11.7,14.8a2.61,2.61,0,0,1,.1,3.5,2.71,2.71,0,0,1-2,.8,3.46,3.46,0,0,1-2-.7.35.35,0,0,0-.2-.1c-.1-.1-.2-.3-.3-.4l-5-5.6A.81.81,0,0,0,50,24a1,1,0,0,0-.8,1.1.76.76,0,0,0,.2.5l5,5.6a2.21,2.21,0,0,1,.1,3.1,2,2,0,0,1-3,0L46,28.62a1,1,0,0,0-1.4,1.4l4.3,4.7a.1.1,0,0,0,.1.1,3.83,3.83,0,0,1,.5,1.9,2.19,2.19,0,0,1-.7,1.7,2.57,2.57,0,0,1-3.3,0l-4.7-5.1A.83.83,0,0,0,40,33a1,1,0,0,0-1,1,.71.71,0,0,0,.3.6l3.8,4.1a2.88,2.88,0,0,1-.7,2.5,2.3,2.3,0,0,1-3.4,0l-2.6-2.6a4.25,4.25,0,0,0-.6-5.4A4,4,0,0,0,33,32a4.47,4.47,0,0,0-1.1-4.1,4.63,4.63,0,0,0-3.6-1.3,5,5,0,0,0-1.2.2,4.17,4.17,0,0,0-1.2-2.7,4.23,4.23,0,0,0-5.9,0l-1,1.1a4.91,4.91,0,0,0-1.2-2.9,4.35,4.35,0,0,0-6.2,0l-.6.5-8.7-6.9,10-13.6A13.78,13.78,0,0,0,19,4.12,13.9,13.9,0,0,0,24.17,3,10.21,10.21,0,0,1,28,2ZM42,2a9.64,9.64,0,0,1,3.8.9A13.46,13.46,0,0,0,51,4a14.06,14.06,0,0,0,6.7-1.8l10,13.6-8.3,6.7-9.5-12.1A1.22,1.22,0,0,0,49,10H41a.91.91,0,0,0-.7.3,76.66,76.66,0,0,1-5.7,5.6c-2.2,1.8-4.5,3.1-6.6,3.1a5,5,0,0,1-2.7-.8,3.17,3.17,0,0,1-1-1.1l11.3-13.3A12.27,12.27,0,0,1,42,2ZM14.57,23a2.34,2.34,0,0,1,1.7.7,2.72,2.72,0,0,1,.7,2v1.4l-2.8,2.8-.1.1a.22.22,0,0,0-.2.2,4.41,4.41,0,0,1-2.1.8,2.11,2.11,0,0,1-2-.7,2.3,2.3,0,0,1,0-3.4l3.2-3.2A2,2,0,0,1,14.57,23Zm8.2,2a2.2,2.2,0,0,1,1.5.6,2.12,2.12,0,0,1,0,3.1l-5.7,5.7a2.12,2.12,0,0,1-3.1,0,2,2,0,0,1,0-3l5.7-5.7A2.29,2.29,0,0,1,22.77,25Zm5.5,3.6a2.12,2.12,0,0,1,2,.8,2.57,2.57,0,0,1,0,3.3l-5.7,5.7a2.71,2.71,0,0,1-3.4,0,2.34,2.34,0,0,1-.7-1.7,3.74,3.74,0,0,1,.5-1.8c0-.1.1-.1.1-.2l4.6-4.6a4.35,4.35,0,0,0,.6-.7A4.45,4.45,0,0,1,28.27,28.62Zm4,5.4a2.94,2.94,0,0,1,1.9.7,2.3,2.3,0,0,1,0,3.4L31,41.32a2.3,2.3,0,0,1-3.4,0,3.53,3.53,0,0,1-.7-2.5l4.7-4.7h0A2.25,2.25,0,0,1,32.27,34Z"/></g></g></svg>