<svg xmlns="http://www.w3.org/2000/svg" viewBox="0 0 71.51 71.25"><defs><style>.cls-1{fill:#b7b7b7;}</style></defs><title>piston</title><g id="Layer_2" data-name="Layer 2"><g id="Layer_1-2" data-name="Layer 1"><path class="cls-1" d="M65.71,30.2a1.49,1.49,0,0,0,1.1-2.5l-23-23a1.48,1.48,0,0,0-2.1,2.1l22.9,22.9A1.61,1.61,0,0,0,65.71,30.2Z"/><path class="cls-1" d="M70,25.9a1.54,1.54,0,0,0,1.5-1.5,2.1,2.1,0,0,0-.4-1.1L48.11.4A1.45,1.45,0,0,0,46,.5a1.52,1.52,0,0,0,0,2l22.9,22.9A1.61,1.61,0,0,0,70,25.9Z"/><path class="cls-1" d="M44.21,50.2a1.45,1.45,0,0,0,2.1,0l4.1-4.1L62.51,34a1.45,1.45,0,0,0,0-2.1L39.51,9a1.45,1.45,0,0,0-2.1,0L25.31,21l-4.1,4.1a1.49,1.49,0,1,0,2,2.2.1.1,0,0,0,.1-.1l3-3,3.5,3.5-1.9,5a1.53,1.53,0,0,0,.3,1.6l.7.7L13.11,52a10,10,0,0,0-9,1.4L2.61,52a1.46,1.46,0,0,0-2.1.3,1.5,1.5,0,0,0,0,1.8l1.4,1.4A9.88,9.88,0,0,0,4,69.3a9.75,9.75,0,0,0,11.7,0l1.2,1.2a1.45,1.45,0,0,0,2.1-.1,1.52,1.52,0,0,0,0-2l-1.2-1.2a10,10,0,0,0,1.4-9l17-15.8.7.7a1.35,1.35,0,0,0,1.6.3l5-1.9L47,45l-3,3a1.83,1.83,0,0,0,.2,2.2Zm-29.3,16a6.86,6.86,0,1,1,0-9.7A6.82,6.82,0,0,1,14.91,66.2Zm3-10.8A8.56,8.56,0,0,0,16,53.5l15.2-16.4,3.2,3.2Zm27.2-16.7a1.35,1.35,0,0,0-1.6-.3l-5,1.9-7.4-7.4,1.9-5a1.57,1.57,0,0,0-.3-1.6l-4.2-4.2,10-10L59.31,33l-10,10Z"/><path class="cls-1" d="M41.91,24.2a5.3,5.3,0,0,0,0,10.6,5.46,5.46,0,0,0,3.8-1.6h0a5.25,5.25,0,0,0,0-7.5A6.05,6.05,0,0,0,41.91,24.2Zm1.6,7a2.33,2.33,0,1,1,0-3.3A2.35,2.35,0,0,1,43.51,31.2Z"/></g></g></svg>