<svg xmlns="http://www.w3.org/2000/svg" viewBox="0 0 46 46"><defs><style>.cls-1{fill:#fff;}</style></defs><title>postenost</title><g id="Layer_2" data-name="Layer 2"><g id="Layer_1-2" data-name="Layer 1"><path class="cls-1" d="M45,8H39c-4.1,0-11-.6-11-5a.94.94,0,0,0-1-1H24V1a1,1,0,0,0-2,0V2H19a.94.94,0,0,0-1,1c0,4.4-6.9,5-11,5H1A.94.94,0,0,0,0,9a.94.94,0,0,0,1,1H5.7L2,22.7v2.2a5,5,0,0,0,5,5,5,5,0,0,0,5-5V22.7L8.3,10c8.9-.3,11.2-3.5,11.6-6H22V44H15a1,1,0,0,0,0,2H31a1,1,0,0,0,0-2H24V4h2.1c.4,2.5,2.7,5.7,11.6,6L34,22.7v2.2a5,5,0,0,0,10,0V22.7L40.3,10H45a.94.94,0,0,0,1-1A.94.94,0,0,0,45,8ZM7,12.6,9.7,22H4.4ZM10,25a3,3,0,0,1-3,3,3,3,0,0,1-3-3V24h6ZM39,12.6,41.7,22H36.4ZM42,25a3,3,0,0,1-6,0V24h6Z"/></g></g></svg>