<svg xmlns="http://www.w3.org/2000/svg" viewBox="0 0 93.8 93.9"><defs><style>.cls-1{fill:#2085dd;}</style></defs><title>search</title><g id="Layer_2" data-name="Layer 2"><g id="Layer_1-2" data-name="Layer 1"><path class="cls-1" d="M0,38.8A38.1,38.1,0,0,0,11.4,66.2a38.6,38.6,0,0,0,51.8,2.7L87,92.7A4,4,0,1,0,92.6,87L68.9,63.2a38.53,38.53,0,0,0,8.7-24.4A38.1,38.1,0,0,0,66.2,11.4a38.63,38.63,0,0,0-54.8,0A38.1,38.1,0,0,0,0,38.8Zm8,0A30.89,30.89,0,0,1,17,17,30.14,30.14,0,0,1,38.8,8a30.72,30.72,0,0,1,21.8,9,30.14,30.14,0,0,1,9,21.8A30.8,30.8,0,1,1,8,38.8Z"/></g></g></svg>