<svg xmlns="http://www.w3.org/2000/svg" viewBox="0 0 94.98 94.88"><defs><style>.cls-1{fill:#ccc;}</style></defs><title>telefon</title><g id="Layer_2" data-name="Layer 2"><g id="Layer_1-2" data-name="Layer 1"><path class="cls-1" d="M85.82,90.47a9.74,9.74,0,0,1-8.7,4.4A64.61,64.61,0,0,1,66,93.37c-13.8-3.6-28.1-12.2-40.2-24.3s-20.7-26.4-24.3-40.2a74.84,74.84,0,0,1-1.5-11,9.59,9.59,0,0,1,4.3-8.6l12.3-8.2a6.35,6.35,0,0,1,9.2,2.4l10,19.3a6.47,6.47,0,0,1-1.7,8l-9,7a70,70,0,0,0,13.6,18.6A71.59,71.59,0,0,0,57,69.77l7.1-9.1a6.35,6.35,0,0,1,8-1.7l19.4,10a6.35,6.35,0,0,1,2.4,9.2Z"/></g></g></svg>