<svg xmlns="http://www.w3.org/2000/svg" viewBox="0 0 81 100"><defs><style>.cls-1{fill:#7f7f7f;}</style></defs><title>tip-pogona</title><g id="Layer_2" data-name="Layer 2"><g id="Layer_1-2" data-name="Layer 1"><path class="cls-1" d="M34.8,31.9H65.6a2.52,2.52,0,0,0,2.5-2.4L69,13.7a2.64,2.64,0,0,0-.7-1.9,2.5,2.5,0,0,0-1.8-.8H34a2.5,2.5,0,0,0-1.8.8,2.64,2.64,0,0,0-.7,1.9l.9,15.8A2.37,2.37,0,0,0,34.8,31.9Zm29-15.8-.6,10.8h-26l-.6-10.8Z"/><path class="cls-1" d="M78.5,95H70.4l1.5-52h4a2.59,2.59,0,0,0,2.5-2.4L80,2.6A2.41,2.41,0,0,0,79.3.8,2.5,2.5,0,0,0,77.5,0H22.9a2.5,2.5,0,0,0-1.8.8,2.57,2.57,0,0,0-.7,1.8l.1,2.6c-.1.1-.3.2-.4.3l-9.6,9.6a2.52,2.52,0,0,0-.6,1.7V32.7c0,.2-.4,15.5-8.3,36.5C-1.3,76.8-.2,84,4.5,88.5a12.64,12.64,0,0,0,8.9,3.6,13.65,13.65,0,0,0,5.5-1.2c2.6-1.1,7.2-4,10.6-11.3L29.9,95h-8a2.5,2.5,0,0,0,0,5H78.5a2.5,2.5,0,0,0,0-5ZM74.9,5,73.5,38H26.9L25.5,5ZM20.8,11.9l.3,7.5a8.15,8.15,0,0,0-3.1-.6,7.11,7.11,0,0,0-3.2.7V18Zm.4,15A3.22,3.22,0,0,1,18,30.1a3.08,3.08,0,0,1-3.1-3.2,3.15,3.15,0,1,1,6.3,0ZM17,86.4a8,8,0,0,1-9-1.5c-3.2-3-3.8-8.3-1.7-13.9,6.8-18.1,8.2-32,8.5-36.6a8.84,8.84,0,0,0,3.3.7,7.79,7.79,0,0,0,3.7-.9l.3,6.4A2.59,2.59,0,0,0,24.6,43h3.9l.4,12.8C28.9,79.5,19.8,85.2,17,86.4ZM35,95,33.5,43H66.9L65.4,95Z"/></g></g></svg>