<svg xmlns="http://www.w3.org/2000/svg" viewBox="0 0 52.31 50.2"><defs><style>.cls-1{fill:#b7b7b7;}</style></defs><title>velikost</title><g id="Layer_2" data-name="Layer 2"><g id="Layer_1-2" data-name="Layer 1"><path class="cls-1" d="M5.4,3h7.2a1.54,1.54,0,0,0,1.5-1.5A1.54,1.54,0,0,0,12.6,0H1.8a.75.75,0,0,0-.5.1h0A2.65,2.65,0,0,0,.7.6,1.74,1.74,0,0,0,.1,1.8V12.6a1.54,1.54,0,0,0,1.5,1.5,1.54,1.54,0,0,0,1.5-1.5V4.9L15.7,17.6a1.71,1.71,0,0,0,2.2,0,1.45,1.45,0,0,0,0-2.1Z"/><path class="cls-1" d="M15.7,32.6,3,45.3V37.6a1.54,1.54,0,0,0-1.5-1.5A1.54,1.54,0,0,0,0,37.6V48.4a1.43,1.43,0,0,0,.6,1.2,2.65,2.65,0,0,0,.6.5h0a1.09,1.09,0,0,0,.5.1H12.5a1.5,1.5,0,0,0,0-3H5.3L17.7,34.8a1.45,1.45,0,0,0,0-2.1A1.34,1.34,0,0,0,15.7,32.6Z"/><path class="cls-1" d="M50.9,36.1a1.54,1.54,0,0,0-1.5,1.5v7.7L36.7,32.6a1.48,1.48,0,0,0-2.1,2.1L47,47.1H39.8a1.5,1.5,0,0,0,0,3H50.6a.75.75,0,0,0,.5-.1h0a2.65,2.65,0,0,0,.6-.5,1.74,1.74,0,0,0,.6-1.2V37.6A1.39,1.39,0,0,0,50.9,36.1Z"/><path class="cls-1" d="M35.5,18a1.5,1.5,0,0,0,1.1-.4L49.3,4.9v7.7a1.5,1.5,0,0,0,3,0V1.8A1.43,1.43,0,0,0,51.7.6a2.65,2.65,0,0,0-.6-.5h0a1.09,1.09,0,0,0-.5-.1H39.7a1.54,1.54,0,0,0-1.5,1.5A1.54,1.54,0,0,0,39.7,3h7.2L34.4,15.5a1.45,1.45,0,0,0,0,2.1A1.5,1.5,0,0,0,35.5,18Z"/></g></g></svg>