<svg xmlns="http://www.w3.org/2000/svg" viewBox="0 0 65.5 61.61"><defs><style>.cls-1{fill:#fff;}</style></defs><title>zadovoljstvo</title><g id="Layer_2" data-name="Layer 2"><g id="Layer_1-2" data-name="Layer 1"><path class="cls-1" d="M60.9,30.71a6.05,6.05,0,0,0-4.7-9.8H46.7c7-9.4,5.9-15.2,5-17.4a5.33,5.33,0,0,0-4-3.5,3.56,3.56,0,0,0-3.3,1.8l-.3.4c-3.5,5.8-5.7,9.4-10,12.8l-10.4,8.5H15.6v28.6h5.3c2.4,5.7,8.4,9.5,15.1,9.5H52.1a6,6,0,0,0,6-6A5.78,5.78,0,0,0,56.9,52a6.06,6.06,0,0,0,5.4-6,5.94,5.94,0,0,0-1.3-3.7,6,6,0,0,0,4.5-5.8A6.21,6.21,0,0,0,60.9,30.71ZM59.8,46a3.48,3.48,0,0,1-3.5,3.5H43.1a3.5,3.5,0,0,1,0-7H56.2A3.56,3.56,0,0,1,59.8,46Zm-7.7,13.1H45.7a3.5,3.5,0,0,1,0-7h6.4a3.48,3.48,0,0,1,3.5,3.5A3.54,3.54,0,0,1,52.1,59.11ZM23,50.41l-.3-.8H18.1V25.91h6.5l11.2-9c4.7-3.7,7-7.6,10.6-13.5l.3-.4a1.22,1.22,0,0,1,1-.6c.6,0,1.4.6,1.9,1.9.6,1.5,1.9,7-5.9,16.5h-.5a6,6,0,0,0-6,6,6.37,6.37,0,0,0,1.5,4,6.09,6.09,0,0,0,0,11.2,6.37,6.37,0,0,0-1.5,4,6.09,6.09,0,0,0,4,5.7,5.82,5.82,0,0,0-1.4,3.9,5.5,5.5,0,0,0,1.2,3.5H36.2C30.1,59.11,24.8,55.61,23,50.41Zm36.8-23.5a3.48,3.48,0,0,1-3.5,3.5H43.1a3.5,3.5,0,0,1,0-7H56.2A3.56,3.56,0,0,1,59.8,26.91ZM59.4,40H40.9a3.5,3.5,0,0,1,0-7H59.3a3.48,3.48,0,0,1,3.5,3.5A3.39,3.39,0,0,1,59.4,40Z"/><path class="cls-1" d="M0,27.21v21.2a3.76,3.76,0,0,0,3.7,3.7h9.1V23.51H3.7A3.69,3.69,0,0,0,0,27.21Zm10.3,22.4H3.7a1.22,1.22,0,0,1-1.2-1.2V27.21A1.22,1.22,0,0,1,3.7,26h6.7v23.6Z"/><circle class="cls-1" cx="6.4" cy="45.71" r="1.5"/></g></g></svg>